<svg viewBox="0 0 19 18" fill="none" xmlns="http://www.w3.org/2000/svg">
<path d="M3.23842 15.5621L3.23842 14.0335C4.96131 15.316 7.43553 15.9119 9.74134 15.9119C12.3581 15.9119 14.7286 15.1605 16.2443 14.0335L16.2443 15.5621C14.5732 17.1684 12.086 17.9327 9.74134 17.9327C7.08577 17.9327 4.71518 16.9871 3.23842 15.5621Z" fill="currentColor"/>
<path d="M14.578 9.93574C12.7126 9.93574 11.5079 8.61443 11.5079 6.56769C11.5079 4.508 12.7385 3.08306 14.7075 3.08306C15.5107 3.08306 16.275 3.40691 16.6506 3.88621V0H18.6455V9.76733H16.7672L16.6636 8.93828C16.3138 9.53416 15.5107 9.93574 14.578 9.93574ZM15.0573 8.10922C15.99 8.10922 16.6377 7.46152 16.6377 6.48997C16.6377 5.51841 15.99 4.87071 15.0573 4.87071C14.1116 4.87071 13.5157 5.53137 13.5157 6.48997C13.5157 7.44856 14.1116 8.10922 15.0573 8.10922Z" fill="currentColor"/>
<path d="M9.50854 9.93574C8.84789 9.93574 8.31677 9.40463 8.31677 8.76988C8.31677 8.12218 8.84789 7.59106 9.50854 7.59106C10.1433 7.59106 10.7003 8.12218 10.7003 8.76988C10.7003 9.40463 10.1433 9.93574 9.50854 9.93574Z" fill="currentColor"/>
<path d="M1.87833 9.76733H0V0H1.99492V4.04165C2.38354 3.45872 3.23851 3.0701 4.1712 3.0701C5.98476 3.0701 7.13767 4.48209 7.13767 6.5936C7.13767 8.60147 5.85522 9.93574 4.01575 9.93574C3.10897 9.93574 2.33172 9.53416 1.98197 8.93828L1.87833 9.76733ZM2.00787 6.48997C2.00787 7.46152 2.65557 8.10922 3.58826 8.10922C4.53391 8.10922 5.12979 7.44856 5.12979 6.48997C5.12979 5.53137 4.53391 4.87071 3.58826 4.87071C2.65557 4.87071 2.00787 5.51841 2.00787 6.48997Z" fill="currentColor"/>
</svg>
