<svg viewBox="0 0 80 14" fill="none" xmlns="http://www.w3.org/2000/svg">
<path d="M75.5697 9.76734H73.5748V3.29033H75.4532L75.5827 3.96394C75.9843 3.40692 76.7227 3.08307 77.5647 3.08307C79.1062 3.08307 80 4.06757 80 5.76455V9.76734H78.0051V6.24385C78.0051 5.42775 77.5517 4.89663 76.8652 4.89663C76.075 4.89663 75.5697 5.41479 75.5697 6.21794V9.76734Z" fill="currentColor"/>
<path d="M65.0535 6.41224C65.0535 4.44323 66.3359 3.0701 68.1625 3.0701C69.0433 3.0701 69.7429 3.4069 70.0926 3.93802L70.1962 3.29032H72.0746V9.3528C72.0746 11.6716 70.7403 13.0706 68.5252 13.0706C66.5432 13.0706 65.2089 11.9436 65.0276 10.1041H67.0484C67.0873 10.8296 67.6313 11.257 68.5122 11.257C69.4708 11.257 70.0797 10.6871 70.0797 9.76733V8.92532C69.691 9.39166 68.9656 9.68961 68.1236 9.68961C66.31 9.68961 65.0535 8.35534 65.0535 6.41224ZM67.0614 6.36042C67.0614 7.29311 67.6832 7.95377 68.564 7.95377C69.4708 7.95377 70.0797 7.31902 70.0797 6.36042C70.0797 5.41478 69.4708 4.80594 68.5511 4.80594C67.6702 4.80594 67.0614 5.44069 67.0614 6.36042Z" fill="currentColor"/>
<path d="M62.8704 2.27989C62.2356 2.27989 61.7304 1.77469 61.7304 1.13994C61.7304 0.505192 62.2356 0.0129395 62.8704 0.0129395C63.4922 0.0129395 63.9974 0.505192 63.9974 1.13994C63.9974 1.77469 63.4922 2.27989 62.8704 2.27989ZM61.8859 9.76732V3.29031H63.8808V9.76732H61.8859Z" fill="currentColor"/>
<path d="M55.1954 7.72061H57.0867C57.1126 8.174 57.4494 8.44603 58.0583 8.44603C58.6801 8.44603 58.9651 8.22582 58.9651 7.88901C58.9651 7.6947 58.8614 7.48744 58.3821 7.3838L57.1904 7.12472C55.9986 6.86564 55.4157 6.34748 55.4157 5.20753C55.4157 3.86031 56.5686 3.08307 58.123 3.08307C59.6257 3.08307 60.675 3.96394 60.675 5.2723H58.7837C58.7837 4.83186 58.5117 4.53392 58.0324 4.53392C57.579 4.53392 57.294 4.76709 57.294 5.11685C57.294 5.41479 57.5401 5.5832 57.9935 5.68683L59.1982 5.94591C60.2605 6.17908 60.8434 6.67133 60.8434 7.70766C60.8434 9.09374 59.6646 9.93575 57.9806 9.93575C56.2706 9.93575 55.1954 9.02897 55.1954 7.72061Z" fill="currentColor"/>
<path d="M51.2161 9.93575C49.26 9.93575 47.861 8.5108 47.861 6.51589C47.861 4.49506 49.2211 3.08307 51.1772 3.08307C53.211 3.08307 54.4805 4.41733 54.4805 6.52884V7.03405L49.7782 7.05995C49.8947 7.91492 50.374 8.31649 51.2549 8.31649C52.0062 8.31649 52.5374 8.04446 52.6799 7.57812H54.5064C54.2732 9.01601 52.9908 9.93575 51.2161 9.93575ZM51.1901 4.70232C50.4 4.70232 49.9595 5.05208 49.8041 5.82932H52.4985C52.4985 5.14276 51.9933 4.70232 51.1901 4.70232Z" fill="currentColor"/>
<path d="M42.6451 9.93574C40.7797 9.93574 39.575 8.61443 39.575 6.56769C39.575 4.508 40.8056 3.08306 42.7746 3.08306C43.5777 3.08306 44.342 3.40691 44.7177 3.88621V0H46.7126V9.76733H44.8343L44.7306 8.93828C44.3809 9.53416 43.5777 9.93574 42.6451 9.93574ZM43.1244 8.10922C44.057 8.10922 44.7047 7.46152 44.7047 6.48997C44.7047 5.51841 44.057 4.87071 43.1244 4.87071C42.1787 4.87071 41.5828 5.53137 41.5828 6.48997C41.5828 7.44856 42.1787 8.10922 43.1244 8.10922Z" fill="currentColor"/>
<path d="M37.5756 9.93574C36.915 9.93574 36.3839 9.40463 36.3839 8.76988C36.3839 8.12218 36.915 7.59106 37.5756 7.59106C38.2104 7.59106 38.7674 8.12218 38.7674 8.76988C38.7674 9.40463 38.2104 9.93574 37.5756 9.93574Z" fill="currentColor"/>
<path d="M28.4299 6.5159C28.4299 4.46917 29.9326 3.09604 32.0052 3.09604C34.0649 3.09604 35.5676 4.46917 35.5676 6.5159C35.5676 8.56264 34.0649 9.92281 32.0052 9.92281C29.9326 9.92281 28.4299 8.56264 28.4299 6.5159ZM30.4378 6.50295C30.4378 7.48745 31.0726 8.13515 32.0052 8.13515C32.925 8.13515 33.5597 7.48745 33.5597 6.50295C33.5597 5.53139 32.925 4.88369 32.0052 4.88369C31.0726 4.88369 30.4378 5.53139 30.4378 6.50295Z" fill="currentColor"/>
<path d="M23.6904 9.76733H21.6954V0H23.6904V5.62205L25.7889 3.29032H28.289L25.8537 5.85522L28.2113 9.76733H25.9055L24.4546 7.34493L23.6904 8.14808V9.76733Z" fill="currentColor"/>
<path d="M20.6867 3.29032V5.16866H20.0519C18.912 5.16866 18.2254 5.67386 18.2254 6.95631V9.76734H16.2305V3.30328H18.1088L18.2124 4.26188C18.4845 3.62713 19.0544 3.19965 19.9224 3.19965C20.1555 3.19965 20.4146 3.22555 20.6867 3.29032Z" fill="currentColor"/>
<path d="M7.93628 6.5159C7.93628 4.46917 9.43895 3.09604 11.5116 3.09604C13.5713 3.09604 15.0739 4.46917 15.0739 6.5159C15.0739 8.56264 13.5713 9.92281 11.5116 9.92281C9.43895 9.92281 7.93628 8.56264 7.93628 6.5159ZM9.94415 6.50295C9.94415 7.48745 10.5789 8.13515 11.5116 8.13515C12.4313 8.13515 13.0661 7.48745 13.0661 6.50295C13.0661 5.53139 12.4313 4.88369 11.5116 4.88369C10.5789 4.88369 9.94415 5.53139 9.94415 6.50295Z" fill="currentColor"/>
<path d="M1.87833 9.76733H0V0H1.99492V4.04165C2.38354 3.45872 3.23851 3.0701 4.1712 3.0701C5.98476 3.0701 7.13767 4.48209 7.13767 6.5936C7.13767 8.60147 5.85522 9.93574 4.01575 9.93574C3.10897 9.93574 2.33172 9.53416 1.98197 8.93828L1.87833 9.76733ZM2.00787 6.48997C2.00787 7.46152 2.65557 8.10922 3.58826 8.10922C4.53391 8.10922 5.12979 7.44856 5.12979 6.48997C5.12979 5.53137 4.53391 4.87071 3.58826 4.87071C2.65557 4.87071 2.00787 5.51841 2.00787 6.48997Z" fill="currentColor"/>
</svg>
