<svg width="128" height="128" viewBox="0 0 128 128" fill="none" xmlns="http://www.w3.org/2000/svg">
<rect width="128" height="128" fill="white"/>
<path d="M102.874 102.952C92.9285 112.696 78.1254 117.332 64.1709 117.332C48.3662 117.332 34.2577 111.596 25.4688 102.952V93.6797C35.7225 101.459 50.4478 105.074 64.1709 105.074C79.7445 105.074 93.8537 100.516 102.874 93.6797V102.952ZM22.5391 45.8506C24.852 42.3146 29.9404 39.9571 35.4912 39.957C46.2848 39.957 53.1465 48.5226 53.1465 61.3311C53.1465 73.5109 45.5141 81.6044 34.5664 81.6045C29.1696 81.6045 24.5435 79.1684 22.4619 75.5537L21.8457 80.583H10.666V21.334H22.5391V45.8506ZM65.0488 67.3818C68.8263 67.3821 72.1414 70.6035 72.1416 74.5322C72.1416 78.3825 68.8264 81.6043 65.0488 81.6045C61.1169 81.6045 57.9551 78.3826 57.9551 74.5322C57.9552 70.6034 61.117 67.3818 65.0488 67.3818ZM119.429 80.583H108.249L107.633 75.5537C105.551 79.1684 100.771 81.6045 95.2197 81.6045C84.1178 81.6044 76.9482 73.5894 76.9482 61.1738C76.9483 48.6797 84.2725 40.0361 95.9912 40.0361C100.771 40.0363 105.32 42.0008 107.556 44.9082V21.334H119.429V80.583ZM32.0225 50.8799C26.4716 50.8799 22.6164 54.8088 22.6162 60.7021C22.6162 66.5956 26.4715 70.5254 32.0225 70.5254C37.6503 70.5252 41.1963 66.5169 41.1963 60.7021C41.1962 54.8875 37.6502 50.8801 32.0225 50.8799ZM98.0723 50.8799C92.4444 50.8799 88.8976 54.8875 88.8975 60.7021C88.8975 66.517 92.4443 70.5253 98.0723 70.5254C103.623 70.5254 107.479 66.5956 107.479 60.7021C107.478 54.8088 103.623 50.8799 98.0723 50.8799Z" fill="black"/>
</svg>
